<svg xmlns="http://www.w3.org/2000/svg" xmlns:xlink="http://www.w3.org/1999/xlink" viewBox="0 0 358 135">
  <defs>
    <path id="a" d="M.4.08h358v135.19H.4z" class="cls-8"/>
  </defs>
  <defs>
    <clipPath id="b">
      <use xlink:href="#a" class="cls-8"/>
    </clipPath>
    <clipPath id="c">
      <use xlink:href="#a" class="cls-8"/>
    </clipPath>
    <clipPath id="d">
      <use xlink:href="#a" class="cls-8"/>
    </clipPath>
    <clipPath id="e">
      <use xlink:href="#a" class="cls-8"/>
    </clipPath>
    <clipPath id="f">
      <use xlink:href="#a" class="cls-8"/>
    </clipPath>
    <clipPath id="g">
      <use xlink:href="#a" class="cls-8"/>
    </clipPath>
    <clipPath id="h">
      <use xlink:href="#a" class="cls-8"/>
    </clipPath>
    <clipPath id="i">
      <use xlink:href="#a" class="cls-8"/>
    </clipPath>
  </defs>
  <path fill="#fff" d="M.4.08h358v135.19H.4z"/>
  <path d="M45.87 88.84h27.8v.8h-27.8zm239.06-.06h27.8v.8h-27.8z" class="cls-11"/>
  <g clip-path="url(#b)">
    <path d="M100.82 93.94c-.65 0-1.24-.11-1.79-.34-.54-.22-1.02-.53-1.42-.92a4.278 4.278 0 0 1-1.28-3.08v-.02c0-.6.11-1.16.33-1.69.22-.52.54-.99.94-1.38.41-.4.88-.71 1.44-.94a4.7 4.7 0 0 1 1.83-.35c.4 0 .77.03 1.1.1.33.06.64.16.91.27.28.12.53.26.77.42s.46.34.67.53l-.99 1.09c-.35-.31-.73-.57-1.12-.76-.39-.19-.84-.29-1.35-.29-.42 0-.81.08-1.16.23-.36.16-.67.37-.93.64a2.8 2.8 0 0 0-.6.94c-.14.36-.21.75-.21 1.16v.02c0 .41.07.8.21 1.16.14.36.34.68.6.95.26.27.57.49.93.65.35.16.74.23 1.16.23.54 0 1-.1 1.38-.29.39-.19.77-.46 1.14-.8l1 .96c-.23.23-.46.44-.71.62a4.314 4.314 0 0 1-1.74.77c-.34.07-.72.1-1.12.1m9.87-4.37c.56 0 1-.13 1.33-.38.33-.25.49-.6.49-1.03v-.02c0-.46-.16-.81-.48-1.04-.32-.24-.77-.36-1.35-.36h-2.26v2.84h2.27Zm-3.8-4.17h3.92c.55 0 1.04.07 1.47.22.43.15.78.35 1.07.62.23.23.42.5.54.81.13.3.19.64.19 1.01v.03c0 .34-.05.65-.16.93s-.25.52-.43.73c-.19.21-.4.39-.66.54-.26.15-.54.26-.85.34l2.38 3.19h-1.82l-2.17-2.93h-1.94v2.93h-1.53v-8.42Z" class="cls-11"/>
  </g>
  <path d="m120.53 82.71 1.38.59-1.53 1.38h-1.18l1.33-1.97Zm-3.68 2.67h6.51v1.33l-4.98-.02v2.19h4.41v1.34h-4.41v2.25h5.04v1.33h-6.57v-8.42Zm14.63 5.07-1.52-3.37-1.51 3.37h3.03Zm-2.21-5.14h1.43l3.87 8.48h-1.64l-.89-2.03h-4.16l-.9 2.03h-1.58l3.87-8.48Zm9.86 1.44h-2.79v-1.37h7.14v1.37h-2.79v7.05h-1.56v-7.05zm6.95-1.37h1.53v8.42h-1.53zm4.78 0h6.53v1.33h-5v2.33h4.44v1.33h-4.44v3.43h-1.53v-8.42z" class="cls-11"/>
  <g clip-path="url(#c)">
    <path d="M176.7 92.46c.46 0 .88-.07 1.26-.21.38-.14.69-.34.96-.59.27-.25.47-.56.62-.91.15-.35.22-.73.22-1.14v-.02c0-.41-.07-.79-.22-1.15-.15-.35-.35-.66-.62-.91-.26-.26-.58-.45-.96-.6-.38-.15-.8-.22-1.26-.22h-1.73v5.75h1.73Zm-3.27-7.08h3.28c.69 0 1.32.11 1.89.32.57.21 1.07.51 1.48.88a3.963 3.963 0 0 1 1.3 2.98v.02c0 .59-.11 1.15-.34 1.66-.23.51-.55.96-.96 1.33-.41.38-.91.68-1.48.89-.58.22-1.21.32-1.89.32h-3.28v-8.42Z" class="cls-11"/>
  </g>
  <path d="M184.14 85.38h6.51v1.33h-4.97v2.17h4.41v1.33h-4.41v2.25h5.04v1.34h-6.58v-8.42z" class="cls-11"/>
  <g clip-path="url(#d)">
    <path d="M196.79 89.76c.59 0 1.05-.14 1.39-.42.34-.28.51-.64.51-1.09v-.02c0-.5-.17-.88-.52-1.13-.35-.25-.81-.38-1.39-.38h-1.8v3.04h1.8Zm-3.34-4.38h3.47c.51 0 .97.07 1.39.2.42.13.77.32 1.06.57.29.25.51.55.67.89.16.35.23.73.23 1.16v.02c0 .47-.09.89-.28 1.24-.18.36-.44.66-.76.9s-.69.42-1.12.55c-.43.12-.89.19-1.37.19h-1.75v2.7h-1.53v-8.42Zm12.88 8.55c-.57 0-1.09-.08-1.54-.23-.46-.16-.86-.39-1.18-.7-.33-.31-.58-.7-.75-1.16-.18-.46-.26-1-.26-1.61v-4.85h1.53v4.79c0 .78.2 1.38.59 1.79.4.41.95.61 1.64.61s1.24-.19 1.63-.59c.39-.39.59-.98.59-1.75v-4.85h1.53v4.77c0 .63-.09 1.18-.27 1.65-.18.47-.43.87-.76 1.19-.33.32-.72.55-1.19.71-.46.15-.99.23-1.57.23" class="cls-11"/>
  </g>
  <path d="M213.21 85.38h1.54v8.42h-1.54z" class="cls-11"/>
  <g clip-path="url(#e)">
    <path d="M221.08 93.92c-.68 0-1.33-.11-1.95-.33-.62-.22-1.19-.56-1.72-1.02l.93-1.06c.43.35.86.62 1.3.81.44.19.93.28 1.49.28.48 0 .86-.1 1.14-.29a.89.89 0 0 0 .42-.77v-.02c0-.15-.03-.28-.08-.4s-.16-.23-.3-.33c-.15-.1-.35-.2-.61-.29-.26-.09-.59-.18-1-.26-.47-.1-.89-.22-1.25-.35-.37-.13-.67-.29-.92-.48s-.44-.42-.57-.69c-.13-.27-.2-.6-.2-.99v-.02c0-.36.07-.69.23-.99.15-.3.35-.56.61-.77.26-.21.58-.38.95-.5s.77-.18 1.21-.18c.65 0 1.23.09 1.74.27.51.18 1 .44 1.45.79l-.83 1.12c-.4-.28-.8-.49-1.19-.64-.4-.15-.79-.22-1.2-.22-.45 0-.8.09-1.05.29-.25.19-.38.43-.38.71v.02c0 .16.03.3.09.43.06.12.16.24.32.34.16.1.37.2.64.28.28.09.62.18 1.04.28.46.11.87.23 1.23.37.36.14.65.3.89.5s.41.42.54.68c.12.26.18.56.18.91v.02c0 .39-.08.75-.23 1.06-.15.31-.37.58-.64.79-.27.22-.6.38-.99.49-.39.11-.81.17-1.27.17" class="cls-11"/>
  </g>
  <path d="m232.23 86.82-1.59.42-.33-1.2 2.37-.72h1.08v8.47h-1.53v-6.97z" class="cls-11"/>
  <g clip-path="url(#f)">
    <path d="M239.92 89.6c.28 0 .53-.04.75-.12.22-.08.41-.19.57-.33.15-.14.27-.3.35-.48.08-.18.12-.38.12-.58v-.02c0-.44-.17-.81-.5-1.11-.33-.3-.78-.44-1.34-.44-.28 0-.52.04-.74.12-.21.08-.4.19-.55.33-.15.15-.27.31-.35.5-.08.19-.12.39-.12.61v.02c0 .44.16.8.49 1.08.32.28.76.42 1.32.42m-.32 4.34c-.61 0-1.14-.09-1.58-.28-.45-.19-.86-.43-1.23-.72l.84-1.13c.34.27.66.47.97.6.31.13.66.19 1.04.19.33 0 .62-.06.87-.19.26-.13.47-.31.65-.55.18-.24.32-.52.42-.85.1-.32.16-.68.18-1.07-.22.26-.5.47-.84.64-.34.17-.75.25-1.23.25s-.89-.06-1.27-.18a2.8 2.8 0 0 1-.98-.53c-.27-.23-.48-.51-.63-.84-.15-.33-.23-.7-.23-1.11v-.02c0-.41.08-.79.24-1.15.16-.36.39-.66.67-.93.29-.26.64-.47 1.04-.61.4-.15.84-.22 1.33-.22.55 0 1.02.07 1.4.22.38.15.73.37 1.04.67.33.31.59.72.78 1.22.19.5.29 1.17.29 1.99v.03c0 .67-.08 1.29-.26 1.86-.17.57-.42 1.05-.74 1.45-.32.4-.72.71-1.19.94-.47.23-1 .34-1.58.34m9.94-1.35c.34 0 .65-.08.92-.23.27-.16.5-.37.7-.64.19-.27.34-.59.45-.95.11-.37.16-.76.16-1.17v-.02c0-.42-.05-.81-.16-1.17a3.54 3.54 0 0 0-.45-.96c-.19-.27-.43-.49-.71-.65-.28-.16-.59-.24-.92-.24s-.65.08-.92.23c-.27.16-.5.37-.7.64-.19.27-.34.59-.45.95-.11.36-.16.76-.16 1.17v.02c0 .42.05.81.16 1.17.1.36.26.68.45.96.2.27.43.49.71.65.27.16.59.24.93.24m-.03 1.33c-.58 0-1.1-.11-1.57-.34-.47-.22-.87-.53-1.21-.92a4.04 4.04 0 0 1-.77-1.38c-.18-.52-.27-1.09-.27-1.69v-.02c0-.6.09-1.17.28-1.69.18-.53.44-.99.78-1.38.34-.39.74-.7 1.22-.93.47-.23 1-.35 1.58-.35s1.1.11 1.57.34c.47.22.87.53 1.2.92.33.39.59.85.77 1.38.18.52.28 1.09.28 1.69v.02c0 .6-.1 1.17-.28 1.7-.18.53-.45.99-.78 1.38-.33.39-.74.7-1.21.93-.47.23-1 .34-1.58.34m9.5-4.34c.28 0 .53-.04.75-.12.22-.08.41-.19.57-.33.15-.14.27-.3.35-.48.08-.18.12-.38.12-.58v-.02c0-.44-.17-.81-.5-1.11-.33-.3-.78-.44-1.34-.44-.28 0-.52.04-.74.12-.21.08-.4.19-.55.33-.15.15-.27.31-.35.5-.08.19-.12.39-.12.61v.02c0 .44.16.8.49 1.08.32.28.76.42 1.32.42m-.32 4.34c-.61 0-1.14-.09-1.59-.28-.45-.19-.85-.43-1.23-.72l.84-1.13c.33.27.66.47.98.6.31.13.66.19 1.03.19.33 0 .62-.06.88-.19s.47-.31.65-.55c.18-.24.32-.52.42-.85.1-.32.16-.68.18-1.07-.22.26-.5.47-.84.64-.34.17-.75.25-1.23.25s-.89-.06-1.27-.18a2.8 2.8 0 0 1-.98-.53c-.27-.23-.48-.51-.63-.84-.15-.33-.23-.7-.23-1.11v-.02a2.788 2.788 0 0 1 .91-2.08c.29-.26.64-.47 1.04-.61.4-.15.84-.22 1.33-.22.55 0 1.02.07 1.4.22.38.15.73.37 1.04.67.33.31.59.72.78 1.22.19.5.29 1.17.29 1.99v.03c0 .67-.08 1.29-.26 1.86-.17.57-.42 1.05-.74 1.45-.32.4-.72.71-1.19.94-.47.23-1 .34-1.58.34m-96.03-.04c-.69 0-1.34-.11-1.97-.33-.63-.22-1.21-.56-1.74-1.02l.94-1.06c.43.35.87.62 1.31.81.44.19.94.28 1.5.28.48 0 .86-.1 1.15-.29.28-.19.43-.45.43-.77v-.02c0-.15-.03-.29-.08-.4a.922.922 0 0 0-.3-.33c-.15-.1-.35-.2-.61-.29-.26-.09-.6-.18-1.01-.26-.48-.11-.9-.22-1.27-.36a3.38 3.38 0 0 1-.93-.48c-.25-.19-.44-.42-.57-.69-.13-.27-.2-.6-.2-.99v-.02c0-.36.07-.69.23-.99.15-.3.36-.56.62-.77.26-.21.58-.38.95-.5s.78-.18 1.22-.18c.65 0 1.24.09 1.76.27.52.18 1.01.44 1.47.79l-.84 1.12c-.41-.28-.81-.5-1.21-.65-.4-.15-.8-.22-1.21-.22-.46 0-.81.1-1.07.29-.25.19-.38.43-.38.71v.02c0 .16.03.3.09.43.06.12.17.24.32.34.16.1.37.19.65.28.27.09.63.18 1.05.28a11 11 0 0 1 1.24.37c.36.14.66.3.9.5.24.19.42.42.54.69.12.26.18.56.18.91v.02c0 .39-.08.75-.23 1.06-.16.31-.37.58-.65.79-.28.22-.61.38-1 .49s-.82.17-1.28.17" class="cls-11"/>
  </g>
  <path d="M46.01 69.92v-27.7h3.51v24.16h8.47v3.54H46.01zm15.52-27.66h3.51v5.68h-3.51zm9.25 0h3.51v27.7h-3.51zm12.16 27.66h-3.51v-27.7h3.1l5.55 19.5 5.52-19.5h3.1v27.7h-3.51V56.65l-3.8 13.27h-2.65l-3.8-13.27v13.27z" class="cls-11"/>
  <g clip-path="url(#g)">
    <path d="M105.24 54.28h2.2c.97 0 1.63-.11 1.98-.34.35-.23.57-.4.67-.53.55-.58.82-1.72.82-3.42 0-.9-.07-1.63-.22-2.18-.15-.55-.37-.98-.65-1.28-.29-.3-.65-.5-1.08-.6-.44-.1-.94-.15-1.51-.15h-2.2v8.49Zm0 15.63h-3.51v-27.7h5.71c2.34 0 4.11.69 5.33 2.07 1.12 1.33 1.68 3.23 1.68 5.71s-.56 4.45-1.68 5.75c-1.19 1.4-2.97 2.1-5.33 2.1h-2.2V69.9ZM124 54.51c.94 0 1.6-.11 1.96-.34.36-.22.59-.4.69-.53.55-.7.82-1.88.82-3.53 0-.93-.07-1.67-.22-2.24-.15-.56-.37-1-.65-1.32-.29-.31-.65-.52-1.08-.62s-.94-.15-1.51-.15h-2.2v8.72h2.2Zm4.96 1.8c.67.65 1.19 1.43 1.55 2.33.36.9.54 1.93.54 3.08v8.19h-3.54v-8.19c0-2.43-1.17-3.64-3.51-3.64h-2.2v11.84h-3.51v-27.7H124c2.36 0 4.14.7 5.33 2.1 1.09 1.28 1.64 3.21 1.64 5.79s-.55 4.5-1.64 5.82c-.05.05-.11.11-.17.19a.89.89 0 0 1-.2.19" class="cls-11"/>
  </g>
  <path d="M137.21 42.26h3.51v27.7h-3.51zm12.16 27.66h-3.51v-27.7h3.1l5.55 19.5 5.52-19.5h3.1v27.7h-3.51V56.65l-3.8 13.27h-2.65l-3.8-13.27v13.27zm22.3-24.13v8.53h7.87v3.53h-7.87v8.57h7.87v3.53h-11.38V42.26h11.38v3.53h-7.87z" class="cls-11"/>
  <g clip-path="url(#h)">
    <path d="M190.43 69.92c-1.24 0-2.24-.22-2.98-.66-.75-.44-1.31-.91-1.68-1.41-.99-1.23-1.49-2.99-1.49-5.3V42.22h3.51v20.33c0 .95.09 1.69.28 2.22.19.53.42.91.69 1.15.27.24.56.38.86.41.3.04.57.06.82.06s.52-.02.82-.06c.3-.04.58-.18.86-.41.27-.24.5-.62.69-1.15s.28-1.26.28-2.22V42.22h3.51v20.33c0 2.31-.5 4.07-1.49 5.3-.37.5-.93.97-1.68 1.41-.75.44-1.74.66-2.98.66m16.88-15.41c.95 0 1.6-.11 1.96-.34.36-.22.59-.4.69-.53.55-.7.82-1.88.82-3.53 0-.93-.07-1.67-.22-2.24s-.37-1-.65-1.32a2.1 2.1 0 0 0-1.08-.62c-.43-.1-.94-.15-1.51-.15h-2.2v8.72h2.2Zm4.96 1.8c.67.65 1.19 1.43 1.55 2.33.36.9.54 1.93.54 3.08v8.19h-3.54v-8.19c0-2.43-1.17-3.64-3.51-3.64h-2.2v11.84h-3.51v-27.7h5.71c2.36 0 4.14.7 5.33 2.1 1.1 1.28 1.64 3.21 1.64 5.79s-.55 4.5-1.64 5.82c-.05.05-.1.11-.17.19a.89.89 0 0 1-.2.19m27.41 13.61c-2.19 0-3.84-.71-4.96-2.14-1.07-1.33-1.6-3.23-1.6-5.71V60.3h3.51v1.77c0 1.63.29 2.79.86 3.49.12.18.35.36.67.54.32.19.83.28 1.53.28s1.21-.14 1.6-.43c.4-.29.7-.64.91-1.05.21-.41.35-.86.41-1.35.06-.49.09-.92.09-1.3 0-.65-.1-1.2-.3-1.65-.2-.45-.46-.83-.78-1.15-.32-.31-.68-.58-1.08-.79-.4-.21-.8-.41-1.19-.58l-.67-.3c-.4-.18-.9-.42-1.51-.73s-1.21-.76-1.81-1.33c-1.49-1.45-2.24-3.31-2.24-5.56 0-1.18.15-2.25.47-3.23.31-.98.76-1.81 1.34-2.5.59-.69 1.28-1.23 2.09-1.62.81-.39 1.7-.58 2.67-.58 1.34 0 2.41.24 3.19.72.78.47 1.37.96 1.77 1.46 1.07 1.38 1.6 3.29 1.6 5.75v1.77h-3.54v-1.77c0-1.08-.11-1.92-.32-2.52-.21-.6-.48-1.03-.8-1.3-.32-.26-.66-.42-1.01-.47-.35-.05-.65-.08-.9-.08-.72 0-1.28.18-1.68.53-.4.35-.7.77-.91 1.26-.21.49-.34.98-.39 1.46-.05.49-.08.86-.08 1.11 0 .65.1 1.21.3 1.67.2.46.46.86.78 1.2.32.34.69.63 1.1.86.41.24.84.45 1.29.62l.6.26c.35.15.83.37 1.44.66.61.29 1.21.72 1.81 1.3 1.54 1.43 2.31 3.27 2.31 5.52 0 2.13-.52 3.9-1.57 5.3-1.22 1.58-2.88 2.37-5 2.37" class="cls-11"/>
  </g>
  <path d="M251.3 42.26h3.51v27.7h-3.51zm12.16 27.66h-3.51v-27.7h3.1l5.56 19.5 5.52-19.5h3.09v27.7h-3.5V56.65l-3.81 13.27h-2.65l-3.8-13.27v13.27z" class="cls-11"/>
  <g clip-path="url(#i)">
    <path d="M288.02 45.79c-.27 0-.58.03-.91.08-.33.05-.66.21-.98.47-.32.26-.59.69-.8 1.28-.21.59-.32 1.42-.32 2.5v11.91c0 1.1.11 1.95.32 2.54.21.59.48 1.01.8 1.28s.65.42.98.47c.33.05.64.07.91.07.25 0 .54-.03.89-.07.35-.05.68-.21 1-.47.32-.26.59-.69.8-1.28.21-.59.32-1.43.32-2.54V50.12c0-1.08-.11-1.91-.32-2.5-.21-.59-.48-1.01-.8-1.28-.32-.26-.66-.42-1-.47-.35-.05-.64-.08-.89-.08m0 24.13c-1.31 0-2.36-.24-3.16-.71-.79-.47-1.39-.96-1.78-1.47-1.04-1.35-1.56-3.26-1.56-5.71V50.12c0-2.46.52-4.36 1.56-5.71.2-.25.44-.5.72-.75.29-.25.63-.48 1.04-.69.41-.21.87-.39 1.39-.53.52-.14 1.11-.21 1.78-.21 1.34 0 2.39.24 3.17.72.78.47 1.37.96 1.76 1.46 1.04 1.35 1.56 3.26 1.56 5.71v11.91c0 2.46-.52 4.36-1.56 5.71-.4.5-.98.99-1.76 1.47s-1.84.71-3.17.71" class="cls-11"/>
  </g>
  <path d="M303.11 69.92h-3.51v-27.7h2.95l6.71 16.76V42.22h3.55v27.7h-2.99l-6.71-16.76v16.76z" class="cls-11"/>
  <path d="M8.74 127.93h341.32V8.24H8.74v119.69Zm342.09.83H7.97V7.41h342.86v121.35Z" class="cls-11"/>
</svg>
